<svg width="100%" height="100%" viewBox="0 0 48 48" fill="none" xmlns="http://www.w3.org/2000/svg">
<path d="M11.6671 29.4939C11.1056 28.2326 9.62778 27.6653 8.36644 28.2269C7.1051 28.7885 6.53783 30.2663 7.09942 31.5276L11.6671 29.4939ZM12.3087 17.253C13.8248 14.6269 16.181 12.5877 18.9975 11.464L17.1447 6.81999C13.2851 8.35983 10.0563 11.1542 7.97854 14.753L12.3087 17.253ZM18.9975 11.464C21.814 10.3404 24.9267 10.1977 27.8342 11.0589L29.2543 6.26481C25.27 5.08459 21.0043 5.28016 17.1447 6.81999L18.9975 11.464ZM27.8342 11.0589C30.7417 11.9201 33.2746 13.7352 35.0247 16.2115L39.1079 13.3258C36.7096 9.93227 33.2386 7.44501 29.2543 6.26481L27.8342 11.0589ZM35.0247 16.2115C36.7748 18.6879 37.6402 21.6813 37.4815 24.7095L42.4747 24.9712C42.6921 20.8214 41.5062 16.7193 39.1079 13.3258L35.0247 16.2115ZM37.4815 24.7095C37.3228 27.7377 36.1492 30.6243 34.1498 32.9041L37.909 36.2009C40.6489 33.0766 42.2572 29.1209 42.4747 24.9712L37.4815 24.7095ZM34.1498 32.9041C32.1505 35.184 29.4418 36.7243 26.4602 37.2769L27.3714 42.1932C31.4572 41.4359 35.1692 39.3251 37.909 36.2009L34.1498 32.9041ZM26.4602 37.2769C23.4786 37.8295 20.3978 37.3622 17.7142 35.9503L15.3861 40.3752C19.0637 42.3101 23.2855 42.9505 27.3714 42.1932L26.4602 37.2769ZM17.7142 35.9503C15.0306 34.5384 12.9005 32.2641 11.6671 29.4939L7.09942 31.5276C8.78959 35.3238 11.7086 38.4404 15.3861 40.3752L17.7142 35.9503Z" fill="currentColor"/>
<path d="M16.9289 16.9306L8.44365 16.9306L8.44359 8.44537" stroke="currentColor" stroke-width="5" stroke-linecap="round"/>
</svg>
