<svg width="100%" height="100%" viewBox="0 0 48 48" fill="none" xmlns="http://www.w3.org/2000/svg">
<path fill-rule="evenodd" clip-rule="evenodd" d="M32.873 22.3979C33.9213 23.2964 35.4996 23.175 36.3981 22.1267C37.2967 21.0784 37.1753 19.5001 36.127 18.6016L25.6376 9.61066C25.6299 9.60406 25.6223 9.59751 25.6146 9.59101L24 8.20703L22.3853 9.59107C22.3776 9.59753 22.37 9.60404 22.3625 9.61059L11.873 18.6016C10.8247 19.5001 10.7033 21.0784 11.6018 22.1267C12.5004 23.175 14.0786 23.2964 15.127 22.3979L21.5 16.9353L21.5 37.4997C21.5 38.8804 22.6193 39.9997 24 39.9997C25.3807 39.9997 26.5 38.8804 26.5 37.4997L26.5 16.9353L32.873 22.3979Z" fill="currentColor"/>
</svg>
