<svg width="100%" height="100%" viewBox="0 0 48 48" fill="none" xmlns="http://www.w3.org/2000/svg">
<path fill-rule="evenodd" clip-rule="evenodd" d="M9.50433 34.9596C8.52802 35.9359 8.52802 37.5188 9.50433 38.4951C10.4806 39.4714 12.0636 39.4714 13.0399 38.4951L24 27.535L34.9602 38.4951C35.9365 39.4714 37.5194 39.4714 38.4957 38.4951C39.472 37.5188 39.472 35.9359 38.4957 34.9596L27.5355 23.9994L38.4957 13.0393C39.472 12.0629 39.472 10.48 38.4957 9.50372C37.5194 8.52741 35.9365 8.52741 34.9602 9.50372L24 20.4639L13.0399 9.50375C12.0636 8.52744 10.4806 8.52744 9.50433 9.50375C8.52802 10.4801 8.52802 12.063 9.50433 13.0393L20.4645 23.9994L9.50433 34.9596Z" fill="currentColor"/>
</svg>
