<svg width="100%" height="100%" viewBox="0 0 394 144" fill="none" xmlns="http://www.w3.org/2000/svg">
<path fill-rule="evenodd" clip-rule="evenodd" d="M305.48 103.944L305.492 103.95L305.504 103.957C311.201 106.897 317.65 108.35 324.82 108.35C330.24 108.35 335.16 107.628 339.563 106.161C344.056 104.693 348.559 102.275 353.069 98.9369L353.721 98.4544C349.079 93.1881 344.685 88.2009 340.512 83.465L339.994 83.9315C338.298 85.4577 336.301 86.6499 333.995 87.5049C331.783 88.2694 329.302 88.657 326.542 88.657C323.798 88.657 321.331 88.1858 319.131 87.2559C317.012 86.3231 315.195 85.012 313.672 83.3203C312.359 81.8614 311.361 80.215 310.677 78.3769H347.486C344.597 78.3769 356.643 78.3769 360.044 78.3769C360.47 75.0693 360.916 71.7529 360.916 68.4114C360.916 61.5091 359.508 55.4021 356.643 50.1334C353.791 44.7976 349.82 40.593 344.743 37.5469C339.645 34.4878 333.784 32.9775 327.205 32.9775C321.723 32.9775 316.544 34.0293 311.682 36.1392L311.674 36.1431C306.918 38.2466 302.709 41.175 299.054 44.9218C295.398 48.669 292.521 53.0093 290.424 57.9327L290.419 57.9444C288.403 62.8016 287.398 67.9732 287.398 73.4466C287.398 80.1263 289.003 86.1624 292.235 91.5178L292.24 91.5269C295.464 96.7766 299.886 100.918 305.48 103.944ZM336.334 57.5745L336.322 57.5579C335.152 55.9696 333.694 54.7628 331.943 53.929L331.931 53.9233C330.271 53.0933 328.391 52.671 326.277 52.671C324.082 52.671 322.068 53.1346 320.226 54.0557L320.214 54.0614L320.203 54.0667C318.342 54.9127 316.645 56.0983 315.112 57.6296C313.895 58.9199 312.854 60.4271 311.992 62.1561L338.858 62.1561C338.266 60.4054 337.428 58.8863 336.348 57.5904L336.334 57.5745Z" fill="white"/>
<path fill-rule="evenodd" clip-rule="evenodd" d="M212.642 106.504L201.695 124.748C207.031 128.305 212.766 130.953 218.953 132.682C225.076 134.393 231.207 135.25 237.345 135.25C246.928 135.25 254.845 132.943 260.975 128.208C267.111 123.557 271.059 116.838 272.881 108.183L288.469 34.0389H264.702L263.836 38.3675C261.489 36.8405 258.889 35.6407 256.041 34.764C252.538 33.6583 248.776 33.1113 244.765 33.1113C239.198 33.1113 233.934 34.1619 228.986 36.2693L228.977 36.273C224.14 38.3723 219.887 41.2522 216.228 44.911C212.566 48.5732 209.686 52.8731 207.588 57.7982C205.478 62.6615 204.428 67.8831 204.428 73.4479C204.428 79.7582 205.848 85.5121 208.709 90.6794L208.714 90.6886C211.567 95.7501 215.443 99.7681 220.333 102.72C225.245 105.686 230.75 107.159 236.815 107.159C241.355 107.159 245.631 106.317 249.63 104.627C249.036 107.596 247.957 110.476 245.457 112.362C243.428 113.894 240.595 114.734 236.815 114.734C233.178 114.734 229.392 114.1 225.45 112.814C220.878 111.324 216.684 109.076 212.642 106.504ZM242.645 86.5106C246.947 86.5106 250.804 85.292 254.257 82.8459L259.284 59.0947C257.679 57.6955 255.766 56.5441 253.528 55.6488C251.049 54.6573 248.397 54.1574 245.56 54.1574C242.255 54.1574 239.271 54.9393 236.576 56.4909C233.861 58.0539 231.738 60.1392 230.184 62.7572C228.641 65.3547 227.86 68.2881 227.86 71.5928C227.86 74.4738 228.473 77.0233 229.675 79.2724C230.965 81.5238 232.728 83.2845 234.982 84.5724C237.229 85.8565 239.772 86.5106 242.645 86.5106Z" fill="white"/>
<path fill-rule="evenodd" clip-rule="evenodd" d="M135.48 34.0512L120.055 106.907H143.946L154.161 58.386C155.722 56.892 157.406 55.8191 159.211 55.142L159.234 55.1333L159.257 55.1237C161.197 54.3157 163.311 53.9048 165.617 53.9048C169.19 53.9048 171.656 55.0251 173.277 57.0874L173.284 57.0971L173.292 57.1066C174.897 59.0761 175.472 61.792 174.733 65.4965L174.731 65.5043L165.899 106.907H189.79L198.899 64.0824L198.9 64.0782C200.177 58.2366 200.015 52.9347 198.323 48.2263C196.726 43.5349 193.892 39.8012 189.842 37.0698C185.77 34.3239 180.805 32.9912 175.025 32.9912C169.263 32.9912 163.828 34.3451 158.736 37.04L159.37 34.0512H135.48Z" fill="white"/>
<path d="M100.226 34.0518L84.8008 106.907H110.071L125.496 34.0518H100.226Z" fill="white"/>
<path d="M127.527 21.2272C123.525 28.1589 114.929 30.6884 108.328 26.8769C101.726 23.0655 99.6187 14.3564 103.621 7.42465C107.623 0.492913 116.219 -2.03657 122.82 1.7749C129.422 5.58637 131.529 14.2955 127.527 21.2272Z" fill="#D3F47C"/>
<path fill-rule="evenodd" clip-rule="evenodd" d="M32.4988 105.894L32.5097 105.898C36.1168 107.193 39.986 107.834 44.1064 107.834C49.7567 107.834 55.0234 106.785 59.8899 104.674C64.8144 102.576 69.1139 99.6962 72.7758 96.0343C76.524 92.286 79.4499 87.9419 81.5499 83.0112C83.6586 78.0605 84.7079 72.752 84.7079 67.0999C84.7079 60.7029 83.2444 54.9422 80.288 49.8554C77.4389 44.7136 73.5665 40.6528 68.6786 37.6997C63.7638 34.6416 58.21 33.1235 52.0566 33.1235C47.5446 33.1235 43.1921 34.0131 39.0082 35.7841L45.2327 6.34766L20.285 11.6077L0 106.906H23.6256L24.7237 101.745C27.11 103.48 29.7028 104.864 32.4988 105.894ZM58.959 77.9124L58.951 77.9256L58.9433 77.9391C57.3852 80.6451 55.2594 82.8153 52.547 84.4621C49.8657 86.0026 46.7995 86.7878 43.3114 86.7878C40.3112 86.7878 37.5432 86.2488 34.9924 85.1832C32.741 84.1288 30.8498 82.7425 29.3021 81.0267L34.2225 58.0652C35.9323 56.7314 37.7324 55.7695 39.6244 55.164L39.648 55.1565L39.6712 55.1481C41.7218 54.4099 43.9038 54.0371 46.2265 54.0371C49.1949 54.0371 51.7805 54.6946 54.0219 55.9754L54.0309 55.9805L54.04 55.9855C56.3861 57.2799 58.1869 59.0448 59.471 61.292C60.7552 63.5392 61.4093 66.0823 61.4093 68.9549C61.4093 72.2458 60.5901 75.2211 58.959 77.9124Z" fill="white"/>
<path d="M279.918 143.635L284.854 120.446H290.419L288.332 130.185L299.363 120.446H306.584L293.467 131.577L301.814 143.635H294.792L287.802 132.802L285.483 143.635H279.918Z" fill="#D3F47C"/>
<path d="M313.509 143.999C311.897 143.999 310.407 143.723 309.037 143.171C307.668 142.619 306.465 141.857 305.427 140.885C304.411 139.891 303.616 138.732 303.042 137.407C302.489 136.06 302.213 134.602 302.213 133.034C302.213 131.246 302.545 129.578 303.207 128.032C303.892 126.464 304.83 125.084 306.023 123.892C307.238 122.699 308.629 121.771 310.197 121.109C311.765 120.424 313.443 120.082 315.232 120.082C316.844 120.082 318.335 120.358 319.704 120.91C321.073 121.462 322.266 122.235 323.282 123.229C324.32 124.201 325.115 125.36 325.667 126.707C326.241 128.032 326.528 129.479 326.528 131.047C326.528 132.836 326.186 134.514 325.501 136.082C324.839 137.628 323.9 138.997 322.685 140.19C321.493 141.382 320.113 142.321 318.545 143.005C316.977 143.668 315.298 143.999 313.509 143.999ZM313.874 138.765C314.845 138.765 315.74 138.577 316.557 138.202C317.396 137.827 318.136 137.308 318.776 136.645C319.417 135.96 319.914 135.176 320.267 134.293C320.62 133.388 320.797 132.427 320.797 131.411C320.797 130.241 320.543 129.203 320.035 128.297C319.527 127.37 318.821 126.641 317.915 126.111C317.032 125.581 316.016 125.316 314.868 125.316C313.918 125.316 313.024 125.504 312.184 125.879C311.345 126.255 310.605 126.785 309.965 127.469C309.324 128.132 308.828 128.916 308.474 129.821C308.121 130.704 307.944 131.654 307.944 132.67C307.944 133.84 308.198 134.889 308.706 135.817C309.214 136.722 309.91 137.44 310.793 137.97C311.698 138.5 312.725 138.765 313.874 138.765Z" fill="#D3F47C"/>
<path d="M326.987 143.635L331.923 120.446H342.722C344.179 120.446 345.449 120.734 346.531 121.308C347.635 121.882 348.497 122.677 349.115 123.693C349.733 124.687 350.043 125.846 350.043 127.171C350.043 128.341 349.789 129.446 349.281 130.484C348.795 131.499 348.11 132.383 347.227 133.134C346.343 133.862 345.317 134.404 344.146 134.757L347.657 143.635H341.761L338.78 135.188H334.341L332.552 143.635H326.987ZM335.335 130.55H341.132C341.75 130.55 342.302 130.428 342.788 130.185C343.274 129.92 343.649 129.578 343.914 129.159C344.201 128.717 344.345 128.231 344.345 127.701C344.345 126.972 344.102 126.398 343.616 125.978C343.152 125.537 342.523 125.316 341.728 125.316H336.461L335.335 130.55Z" fill="#D3F47C"/>
<path d="M349.47 143.635L354.406 120.446H372.327L371.267 125.382H358.911L358.016 129.556H366.165L365.172 134.326H357.023L356.095 138.699H368.584L367.524 143.635H349.47Z" fill="#D3F47C"/>
<path d="M369.089 143.635L383.234 120.446H389.627L394 143.635H388.236L387.308 138.036H378.43L375.184 143.635H369.089ZM381.047 133.498H386.579L385.354 126.078L381.047 133.498Z" fill="#D3F47C"/>
</svg>
