<svg width="100%" height="100%" viewBox="0 0 197 72" fill="none" xmlns="http://www.w3.org/2000/svg">
<path fill-rule="evenodd" clip-rule="evenodd" d="M152.741 51.972L152.747 51.9752L152.753 51.9783C155.601 53.4485 158.826 54.1752 162.411 54.1752C165.121 54.1752 167.581 53.8141 169.782 53.0805C172.029 52.3465 174.28 51.1375 176.536 49.4685L176.862 49.2272C174.54 46.5941 172.344 44.1005 170.257 41.7325L169.998 41.9658C169.15 42.7289 168.151 43.3249 166.998 43.7524C165.893 44.1347 164.652 44.3285 163.272 44.3285C161.9 44.3285 160.666 44.0929 159.566 43.628C158.507 43.1615 157.598 42.506 156.837 41.6601C156.181 40.9307 155.682 40.1075 155.34 39.1884H173.744C172.3 39.1884 178.323 39.1884 180.023 39.1884C180.236 37.5346 180.459 35.8764 180.459 34.2057C180.459 30.7545 179.755 27.7011 178.323 25.0667C176.896 22.3988 174.911 20.2965 172.373 18.7734C169.823 17.2439 166.893 16.4888 163.603 16.4888C160.863 16.4888 158.273 17.0146 155.842 18.0696L155.838 18.0716C153.46 19.1233 151.355 20.5875 149.528 22.4609C147.7 24.3345 146.261 26.5046 145.213 28.9664L145.21 28.9722C144.202 31.4008 143.7 33.9866 143.7 36.7233C143.7 40.0631 144.502 43.0812 146.118 45.7589L146.121 45.7635C147.733 48.3883 149.944 50.459 152.741 51.972ZM168.168 28.7873L168.162 28.779C167.577 27.9848 166.848 27.3814 165.973 26.9645L165.967 26.9617C165.137 26.5466 164.197 26.3355 163.14 26.3355C162.042 26.3355 161.035 26.5673 160.114 27.0279L160.108 27.0307L160.102 27.0334C159.172 27.4564 158.323 28.0491 157.557 28.8148C156.948 29.46 156.428 30.2135 155.997 31.0781H169.43C169.134 30.2027 168.715 29.4431 168.175 28.7952L168.168 28.7873Z" fill="white"/>
<path fill-rule="evenodd" clip-rule="evenodd" d="M106.321 53.2519L100.848 62.374C103.516 64.1527 106.384 65.4766 109.477 66.3408C112.538 67.1963 115.604 67.6251 118.673 67.6251C123.464 67.6251 127.423 66.4714 130.488 64.1039C133.556 61.7783 135.53 58.4191 136.441 54.0915L144.235 17.0194H132.351L131.918 19.1838C130.745 18.4203 129.445 17.8203 128.021 17.382C126.27 16.8292 124.389 16.5557 122.383 16.5557C119.599 16.5557 116.967 17.0809 114.493 18.1346L114.489 18.1365C112.07 19.1862 109.944 20.6261 108.114 22.4555C106.283 24.2866 104.843 26.4366 103.794 28.8991C102.74 31.3308 102.215 33.9415 102.215 36.7239C102.215 39.8791 102.925 42.7561 104.355 45.3397L104.357 45.3443C105.784 47.8751 107.722 49.8841 110.167 51.3602C112.623 52.8429 115.376 53.5796 118.408 53.5796C120.678 53.5796 122.816 53.1584 124.815 52.3137C124.519 53.7979 123.979 55.2379 122.729 56.1812C121.715 56.9469 120.298 57.367 118.408 57.367C116.59 57.367 114.696 57.05 112.725 56.4072C110.439 55.6618 108.342 54.538 106.321 53.2519ZM121.323 43.2553C123.474 43.2553 125.403 42.646 127.129 41.4229L129.642 29.5473C128.84 28.8477 127.883 28.272 126.764 27.8244C125.525 27.3287 124.199 27.0787 122.78 27.0787C121.128 27.0787 119.636 27.4697 118.288 28.2455C116.931 29.0269 115.87 30.0696 115.092 31.3786C114.321 32.6774 113.93 34.1441 113.93 35.7964C113.93 37.2369 114.237 38.5117 114.838 39.6362C115.483 40.7619 116.364 41.6422 117.491 42.2862C118.615 42.9283 119.887 43.2553 121.323 43.2553Z" fill="white"/>
<path fill-rule="evenodd" clip-rule="evenodd" d="M67.7398 17.0256L60.0273 53.4533H71.9729L77.0804 29.193C77.8611 28.446 78.7028 27.9095 79.6056 27.571L79.6172 27.5666L79.6287 27.5618C80.5983 27.1578 81.6557 26.9524 82.8084 26.9524C84.5951 26.9524 85.8281 27.5125 86.6383 28.5437L86.6421 28.5485L86.646 28.5533C87.4484 29.538 87.736 30.896 87.3663 32.7482L87.3656 32.7522L82.9493 53.4533H94.895L99.4493 32.0412L99.4498 32.0391C100.088 29.1183 100.008 26.4674 99.1616 24.1132C98.3628 21.7675 96.9459 19.9006 94.9209 18.5349C92.8852 17.162 90.4025 16.4956 87.5123 16.4956C84.6316 16.4956 81.9141 17.1725 79.3681 18.52L79.6851 17.0256H67.7398Z" fill="white"/>
<path d="M50.1124 17.0259L42.3999 53.4535H55.035L62.7475 17.0259H50.1124Z" fill="white"/>
<path d="M63.7637 10.6136C61.7627 14.0795 57.4647 15.3442 54.1639 13.4385C50.863 11.5327 49.8093 7.17819 51.8104 3.71232C53.8114 0.246457 58.1094 -1.01828 61.4102 0.887451C64.711 2.79318 65.7647 7.14773 63.7637 10.6136Z" fill="#955DE9"/>
<path fill-rule="evenodd" clip-rule="evenodd" d="M16.2494 52.9469L16.2548 52.9489C18.0584 53.5963 19.993 53.917 22.0532 53.917C24.8784 53.917 27.5117 53.3926 29.945 52.337C32.4072 51.2879 34.5569 49.8481 36.3879 48.0171C38.262 46.143 39.7249 43.9709 40.775 41.5056C41.8293 39.0303 42.354 36.376 42.354 33.5499C42.354 30.3514 41.6222 27.4711 40.144 24.9277C38.7195 22.3568 36.7833 20.3264 34.3393 18.8498C31.8819 17.3208 29.105 16.5618 26.0283 16.5618C23.7723 16.5618 21.596 17.0066 19.5041 17.8921L22.6163 3.17383L10.1425 5.80385L0 53.4532H11.8128L12.3619 50.8727C13.555 51.7401 14.8514 52.4318 16.2494 52.9469ZM29.4795 38.9562L29.4755 38.9628L29.4716 38.9695C28.6926 40.3226 27.6297 41.4077 26.2735 42.231C24.9328 43.0013 23.3997 43.3939 21.6557 43.3939C20.1556 43.3939 18.7716 43.1244 17.4962 42.5916C16.3705 42.0644 15.4249 41.3713 14.6511 40.5133L17.1112 29.0326C17.9661 28.3657 18.8662 27.8847 19.8122 27.582L19.824 27.5782L19.8356 27.574C20.8609 27.205 21.9519 27.0186 23.1132 27.0186C24.5975 27.0186 25.8903 27.3473 27.011 27.9877L27.0155 27.9902L27.02 27.9927C28.193 28.6399 29.0935 29.5224 29.7355 30.646C30.3776 31.7696 30.7046 33.0411 30.7046 34.4775C30.7046 36.1229 30.295 37.6106 29.4795 38.9562Z" fill="white"/>
<path d="M139.68 71.5459L142.148 59.9517H144.93L143.887 64.8213L149.402 59.9517H153.013L146.454 65.5169L150.628 71.5459H147.116L143.622 66.1297L142.462 71.5459H139.68Z" fill="#955DE9"/>
<path d="M156.475 71.7281C155.669 71.7281 154.924 71.59 154.239 71.314C153.555 71.0379 152.953 70.657 152.434 70.1711C151.926 69.6742 151.529 69.0945 151.241 68.432C150.965 67.7584 150.827 67.0297 150.827 66.2457C150.827 65.3513 150.993 64.5176 151.324 63.7447C151.667 62.9607 152.136 62.2706 152.732 61.6743C153.339 61.078 154.035 60.6142 154.819 60.283C155.603 59.9407 156.442 59.7695 157.337 59.7695C158.143 59.7695 158.888 59.9076 159.573 60.1836C160.257 60.4597 160.854 60.8461 161.361 61.343C161.88 61.8289 162.278 62.4086 162.554 63.0821C162.841 63.7447 162.985 64.4679 162.985 65.2519C162.985 66.1463 162.814 66.9855 162.471 67.7695C162.14 68.5424 161.671 69.227 161.063 69.8233C160.467 70.4196 159.777 70.8889 158.993 71.2312C158.209 71.5624 157.37 71.7281 156.475 71.7281ZM156.658 69.1111C157.143 69.1111 157.591 69.0172 157.999 68.8295C158.419 68.6418 158.789 68.3823 159.109 68.0511C159.429 67.7088 159.678 67.3168 159.854 66.8751C160.031 66.4224 160.119 65.942 160.119 65.4341C160.119 64.8489 159.992 64.3299 159.738 63.8772C159.484 63.4134 159.131 63.049 158.678 62.784C158.237 62.519 157.729 62.3865 157.154 62.3865C156.68 62.3865 156.232 62.4804 155.813 62.6681C155.393 62.8558 155.023 63.1208 154.703 63.4631C154.383 63.7944 154.134 64.1863 153.958 64.6391C153.781 65.0807 153.693 65.5556 153.693 66.0635C153.693 66.6487 153.82 67.1732 154.074 67.637C154.328 68.0897 154.676 68.4486 155.117 68.7136C155.57 68.9786 156.083 69.1111 156.658 69.1111Z" fill="#955DE9"/>
<path d="M163.214 71.5459L165.682 59.9517H171.082C171.81 59.9517 172.445 60.0953 172.986 60.3824C173.538 60.6695 173.969 61.067 174.278 61.5749C174.587 62.0718 174.742 62.6515 174.742 63.314C174.742 63.8993 174.615 64.4514 174.361 64.9703C174.118 65.4783 173.776 65.9199 173.334 66.2954C172.892 66.6598 172.379 66.9303 171.794 67.107L173.549 71.5459H170.601L169.111 67.3223H166.891L165.997 71.5459H163.214ZM167.388 65.0035H170.287C170.596 65.0035 170.872 64.9427 171.115 64.8213C171.358 64.6888 171.545 64.5176 171.678 64.3078C171.821 64.087 171.893 63.844 171.893 63.579C171.893 63.2146 171.772 62.9276 171.529 62.7178C171.297 62.4969 170.982 62.3865 170.585 62.3865H167.951L167.388 65.0035Z" fill="#955DE9"/>
<path d="M174.456 71.5459L176.924 59.9517H185.884L185.354 62.4196H179.176L178.729 64.5066H182.803L182.307 66.8916H178.232L177.768 69.078H184.013L183.482 71.5459H174.456Z" fill="#955DE9"/>
<path d="M184.265 71.5459L191.338 59.9517H194.534L196.721 71.5459H193.839L193.375 68.7467H188.936L187.313 71.5459H184.265ZM190.244 66.4776H193.01L192.398 62.7674L190.244 66.4776Z" fill="#955DE9"/>
</svg>
