<svg width="100%" height="100%" viewBox="0 0 48 48" fill="none" xmlns="http://www.w3.org/2000/svg">
<circle cx="24" cy="24" r="18" stroke="currentColor" stroke-width="4"/>
<path d="M27 24C27 25.6569 25.6569 27 24 27C22.3431 27 21 25.6569 21 24C21 22.3431 22.3431 21 24 21C25.6569 21 27 22.3431 27 24Z" fill="currentColor"/>
<path d="M18 24C18 25.6569 16.6569 27 15 27C13.3431 27 12 25.6569 12 24C12 22.3431 13.3431 21 15 21C16.6569 21 18 22.3431 18 24Z" fill="currentColor"/>
<path d="M36 24C36 25.6569 34.6569 27 33 27C31.3431 27 30 25.6569 30 24C30 22.3431 31.3431 21 33 21C34.6569 21 36 22.3431 36 24Z" fill="currentColor"/>
</svg>
