<svg width="100%" height="100%" viewBox="0 0 48 48" fill="none" xmlns="http://www.w3.org/2000/svg">
<path fill-rule="evenodd" clip-rule="evenodd" d="M25.7516 6.09731C25.4265 5.42626 24.7461 5 24 5C23.2539 5 22.5735 5.42626 22.2484 6.09731L17.7361 15.4128L7.66075 16.9047C6.93235 17.0125 6.32727 17.522 6.09735 18.221C5.86742 18.92 6.05206 19.6888 6.57439 20.2074L13.887 27.468L12.1596 37.7331C12.0365 38.4647 12.3407 39.2025 12.9438 39.6351C13.547 40.0678 14.3439 40.1198 14.9982 39.7692L24 34.9462L33.0018 39.7692C33.6561 40.1198 34.453 40.0678 35.0562 39.6351C35.6593 39.2025 35.9635 38.4647 35.8404 37.7331L34.113 27.468L41.4256 20.2074C41.9479 19.6888 42.1326 18.92 41.9027 18.221C41.6727 17.522 41.0677 17.0125 40.3393 16.9047L30.2639 15.4128L25.7516 6.09731Z" fill="currentColor"/>
</svg>
