<svg width="100%" height="100%" viewBox="0 0 48 48" fill="none" xmlns="http://www.w3.org/2000/svg">
<path fill-rule="evenodd" clip-rule="evenodd" d="M24 5C24.7461 5 25.4265 5.42626 25.7516 6.09731L30.2639 15.4128L40.3392 16.9047C41.0676 17.0125 41.6727 17.522 41.9027 18.221C42.1326 18.92 41.9479 19.6888 41.4256 20.2074L34.113 27.468L35.8404 37.7331C35.9635 38.4647 35.6593 39.2025 35.0562 39.6351C34.453 40.0678 33.6561 40.1198 33.0018 39.7692L24 34.9462L14.9982 39.7692C14.3439 40.1198 13.547 40.0678 12.9438 39.6351C12.3407 39.2025 12.0365 38.4647 12.1596 37.7331L13.887 27.468L6.57439 20.2074C6.05206 19.6888 5.86742 18.92 6.09735 18.221C6.32727 17.522 6.93235 17.0125 7.66075 16.9047L17.7361 15.4128L22.2484 6.09731C22.5735 5.42626 23.2539 5 24 5ZM24 11.4076L20.7909 18.0327C20.5104 18.6117 19.9614 19.0147 19.3246 19.109L12.0713 20.183L17.3446 25.4188C17.7926 25.8636 17.9967 26.4981 17.892 27.1205L16.6555 34.4686L23.0805 31.0263C23.6548 30.7185 24.3452 30.7185 24.9195 31.0263L31.3445 34.4686L30.108 27.1205C30.0033 26.4981 30.2074 25.8636 30.6554 25.4188L35.9287 20.183L28.6754 19.109C28.0386 19.0147 27.4896 18.6117 27.2091 18.0327L24 11.4076Z" fill="currentColor"/>
</svg>
