<svg width="100%" height="100%" viewBox="0 0 48 48" fill="none" xmlns="http://www.w3.org/2000/svg">
<g clip-path="url(#clip0_21235_114721)">
<path fill-rule="evenodd" clip-rule="evenodd" d="M34 22.0006C34 28.628 28.6274 34.0006 22 34.0006C15.3726 34.0006 10 28.628 10 22.0006C10 15.3732 15.3726 10.0006 22 10.0006C28.6274 10.0006 34 15.3732 34 22.0006ZM32.1231 35.6593C29.2952 37.7587 25.7926 39.0006 22 39.0006C12.6112 39.0006 5 31.3895 5 22.0006C5 12.6118 12.6112 5.00061 22 5.00062C31.3888 5.00061 39 12.6118 39 22.0006C39 25.7932 37.758 29.2958 35.6587 32.1237L41.4246 37.8897C42.4009 38.866 42.4009 40.449 41.4246 41.4253C40.4483 42.4016 38.8654 42.4016 37.8891 41.4253L32.1231 35.6593Z" fill="currentColor"/>
</g>
<defs>
<clipPath id="clip0_21235_114721">
<rect width="48" height="48" fill="white"/>
</clipPath>
</defs>
</svg>
