<svg width="48" height="48" viewBox="0 0 48 48" fill="none" xmlns="http://www.w3.org/2000/svg">
<g id="Subtitle">
<path id="Union" fill-rule="evenodd" clip-rule="evenodd" d="M8 12H40V36H8V12ZM4 12C4 9.79086 5.79086 8 8 8H40C42.2091 8 44 9.79086 44 12V36C44 38.2091 42.2091 40 40 40H8C5.79086 40 4 38.2091 4 36V12ZM14 32C12.8954 32 12 31.1046 12 30C12 28.8954 12.8954 28 14 28H24C25.1046 28 26 28.8954 26 30C26 31.1046 25.1046 32 24 32H14ZM31 32C29.8954 32 29 31.1046 29 30C29 28.8954 29.8954 28 31 28H34C35.1046 28 36 28.8954 36 30C36 31.1046 35.1046 32 34 32H31Z" fill="#1C1C1C"/>
</g>
</svg>
