<svg width="100%" height="100%" viewBox="0 0 56 54" fill="none" xmlns="http://www.w3.org/2000/svg">
<path fill-rule="evenodd" clip-rule="evenodd" d="M22.2744 53.0293L22.2798 53.0312C24.0861 53.6797 26.0237 54.0008 28.0871 54.0008C30.9166 54.0008 33.554 53.4757 35.991 52.4184C38.457 51.3677 40.6101 49.9257 42.4438 48.0919C44.3208 46.2149 45.786 44.0395 46.8377 41.5704C47.8936 39.0913 48.4191 36.4329 48.4191 33.6025C48.4191 30.3991 47.6862 27.5143 46.2057 24.967C44.779 22.3922 42.8398 20.3586 40.3921 18.8798C37.9309 17.3484 35.1498 16.5882 32.0683 16.5882C29.8089 16.5882 27.6292 17.0337 25.5341 17.9205L28.6511 3.17969L16.1581 5.81375L6 53.5364H17.831L18.3809 50.9518C19.5759 51.8206 20.8742 52.5134 22.2744 53.0293ZM35.5248 39.0171L35.5208 39.0237L35.5169 39.0304C34.7367 40.3855 33.6722 41.4723 32.3139 42.2969C30.9712 43.0684 29.4357 43.4616 27.689 43.4616C26.1866 43.4616 24.8004 43.1917 23.5231 42.658C22.3957 42.13 21.4486 41.4358 20.6736 40.5766L23.1375 29.0782C23.9937 28.4103 24.8952 27.9286 25.8427 27.6254L25.8545 27.6216L25.8661 27.6174C26.8929 27.2478 27.9856 27.0611 29.1488 27.0611C30.6353 27.0611 31.9301 27.3903 33.0525 28.0317L33.057 28.0343L33.0615 28.0368C34.2364 28.685 35.1382 29.5688 35.7812 30.6941C36.4243 31.8194 36.7518 33.0929 36.7518 34.5314C36.7518 36.1794 36.3416 37.6694 35.5248 39.0171Z" fill="white"/>
<path d="M54.2373 10.6299C52.2332 14.1011 47.9286 15.3678 44.6227 13.4591C41.3168 11.5505 40.2614 7.18923 42.2655 3.71803C44.2696 0.246835 48.5742 -1.01985 51.8801 0.888815C55.186 2.79748 56.2414 7.15871 54.2373 10.6299Z" fill="#D3F47C"/>
</svg>
