<svg width="100%" height="100%" viewBox="0 0 60 54" fill="none" xmlns="http://www.w3.org/2000/svg">
<path fill-rule="evenodd" clip-rule="evenodd" d="M26.2744 53.0283L26.2798 53.0303C28.0861 53.6787 30.0237 53.9999 32.0871 53.9999C34.9166 53.9999 37.554 53.4747 39.991 52.4174C42.457 51.3668 44.6101 49.9247 46.4438 48.091C48.3208 46.214 49.786 44.0385 50.8377 41.5694C51.8936 39.0903 52.4191 36.4319 52.4191 33.6015C52.4191 30.3981 51.6862 27.5133 50.2057 24.966C48.779 22.3912 46.8398 20.3576 44.3921 18.8788C41.9309 17.3474 39.1498 16.5872 36.0683 16.5872C33.8089 16.5872 31.6292 17.0327 29.5341 17.9196L32.6511 3.17871L20.1581 5.81277L10 53.5354H21.831L22.3809 50.9509C23.5759 51.8197 24.8742 52.5124 26.2744 53.0283ZM39.5248 39.0161L39.5208 39.0227L39.5169 39.0294C38.7367 40.3846 37.6722 41.4713 36.3139 42.296C34.9712 43.0674 33.4357 43.4606 31.689 43.4606C30.1866 43.4606 28.8004 43.1907 27.5231 42.6571C26.3957 42.1291 25.4486 41.4349 24.6736 40.5756L27.1375 29.0772C27.9937 28.4093 28.8952 27.9276 29.8427 27.6244L29.8545 27.6206L29.8661 27.6164C30.8929 27.2468 31.9856 27.0601 33.1488 27.0601C34.6353 27.0601 35.9301 27.3893 37.0525 28.0307L37.057 28.0333L37.0615 28.0358C38.2364 28.684 39.1382 29.5678 39.7812 30.6931C40.4243 31.8185 40.7518 33.0919 40.7518 34.5305C40.7518 36.1784 40.3416 37.6684 39.5248 39.0161Z" fill="white"/>
<path d="M58.2373 10.6299C56.2332 14.1011 51.9286 15.3678 48.6227 13.4591C45.3168 11.5505 44.2614 7.18923 46.2655 3.71803C48.2696 0.246835 52.5742 -1.01985 55.8801 0.888815C59.186 2.79748 60.2414 7.15871 58.2373 10.6299Z" fill="#F39C12"/>
</svg>
