<svg width="100%" height="100%" viewBox="0 0 48 48" fill="none" xmlns="http://www.w3.org/2000/svg">
<path fill-rule="evenodd" clip-rule="evenodd" d="M9.33466 34.4393C10.3449 35.8559 11.5552 37.12 12.9245 38.1902C8.7095 34.8958 5.99994 29.7643 5.99994 24C5.99994 14.0589 14.0588 6 23.9999 6C33.9411 6 41.9999 14.0589 41.9999 24C41.9999 27.8926 40.7643 31.4966 38.6639 34.4412C36.0326 32.0303 32.5886 30.2692 28.7022 29.4729C30.7008 28.0185 31.9999 25.6609 31.9999 23C31.9999 18.5817 28.4182 15 23.9999 15C19.5817 15 15.9999 18.5817 15.9999 23C15.9999 25.6606 17.2988 28.0179 19.2969 29.4723C15.4105 30.2682 11.9663 32.0288 9.33466 34.4393ZM23.9999 46C36.1502 46 45.9999 36.1503 45.9999 24C45.9999 11.8497 36.1502 2 23.9999 2C11.8497 2 1.99994 11.8497 1.99994 24C1.99994 36.1503 11.8497 46 23.9999 46Z" fill="currentColor"/>
</svg>
